<svg xmlns="http://www.w3.org/2000/svg" xmlns:xlink="http://www.w3.org/1999/xlink" viewBox="0 0 376 541.5"><defs><style>.cls-1,.cls-3{fill:none;}.cls-2{clip-path:url(#clip-path);}.cls-3{stroke:#000;stroke-miterlimit:10;stroke-width:10px;}</style><clipPath id="clip-path"><circle class="cls-1" cx="188" cy="203" r="174.5"/></clipPath></defs><g id="Layer_2" data-name="Layer 2"><g id="Layer_1-2" data-name="Layer 1"><g class="cls-2"><path d="M192,202.5A164.5,164.5,0,1,1,75.68,250.68,163.42,163.42,0,0,1,192,202.5m0-10A174.5,174.5,0,1,0,366.5,367,174.5,174.5,0,0,0,192,192.5Z"/><path d="M191.5,86.5a48,48,0,1,1-48,48,48.05,48.05,0,0,1,48-48m0-10a58,58,0,1,0,58,58,58,58,0,0,0-58-58Z"/></g><circle class="cls-3" cx="188" cy="188" r="183"/></g></g></svg>